<svg width="236" height="91" viewBox="0 0 236 91" fill="none" xmlns="http://www.w3.org/2000/svg">
<path d="M18 0H218V90H18V0Z" fill="#F8FBFA"/>
<g clip-path="url(#clip0_1_355)">
<path d="M20 30H34.3692C37.1063 30 39.159 30.5586 40.6796 31.4895C42.3522 32.6067 43.2646 34.2203 43.2646 36.2064C43.2646 38.5027 42.1241 39.9302 39.8433 40.7991V40.9232C42.8845 41.73 44.633 43.9643 44.633 46.633C44.633 49.1777 43.4166 51.1637 41.4398 52.405C39.7672 53.398 37.6385 53.8324 34.7494 53.8324H20V30ZM32.9247 39.3095C34.4453 39.3095 35.5857 38.6268 35.5857 37.1994C35.5857 35.834 34.4453 35.1513 32.8487 35.1513H27.9069V39.2475H32.9247V39.3095ZM33.609 48.557C35.3576 48.557 36.6501 47.6881 36.6501 46.1365C36.6501 44.4608 35.2816 43.7161 33.609 43.7161H27.9829V48.6191H33.609V48.557Z" fill="#64726F"/>
<path d="M45.9254 30H53.4522V53.8945H45.9254V30Z" fill="#64726F"/>
<path d="M54.9729 45.3918C54.9729 39.9923 59.2305 36.3926 65.8449 36.3926C72.4593 36.3926 76.6408 40.0544 76.6408 45.3918C76.6408 50.7914 72.4593 54.3911 65.8449 54.3911C59.2305 54.3911 54.9729 50.7914 54.9729 45.3918ZM69.1142 45.3918C69.1142 42.4128 67.9737 40.5509 65.6929 40.5509C63.412 40.5509 62.3476 42.4128 62.3476 45.3918C62.3476 48.3709 63.412 50.2949 65.6929 50.2949C67.9737 50.2328 69.1142 48.3709 69.1142 45.3918Z" fill="#64726F"/>
<path d="M77.4775 45.3918C77.4775 39.9923 81.7351 36.3926 88.3495 36.3926C94.9639 36.3926 99.0694 39.9923 99.0694 45.3918C99.0694 50.7914 94.8879 54.3911 88.2734 54.3911C81.7351 54.3911 77.4775 50.7914 77.4775 45.3918ZM91.6186 45.3918C91.6186 42.4128 90.4783 40.5509 88.1974 40.5509C85.9166 40.5509 84.8522 42.4128 84.8522 45.3918C84.8522 48.3709 85.9166 50.2949 88.1974 50.2949C90.4783 50.2328 91.6186 48.3709 91.6186 45.3918Z" fill="#64726F"/>
<path d="M100.59 36.8266H107.584V39.3712H107.736C109.105 37.3852 111.006 36.3301 114.047 36.3301C116.708 36.3301 118.684 37.3852 119.673 39.2471H119.825C121.497 37.0128 123.702 36.3301 126.287 36.3301C131.153 36.3301 133.206 39.2471 133.206 43.1571V53.8321H125.907V44.2122C125.907 42.4744 125.223 41.3573 123.398 41.3573C121.574 41.3573 120.661 42.7227 120.661 44.5846V53.8321H113.362V44.2122C113.362 42.4744 112.678 41.3573 110.854 41.3573C109.029 41.3573 108.117 42.7227 108.117 44.5846V53.8321H100.59V36.8266Z" fill="#64726F"/>
<path d="M142.405 51.5981H142.329V53.8324H135.334V30H142.632V38.5648H142.785C144.154 37.0753 146.054 36.2684 148.716 36.2684C153.961 36.2684 157.003 40.1164 157.003 45.2676C157.003 51.0396 153.733 54.391 148.259 54.391C145.978 54.391 143.621 53.5221 142.405 51.5981ZM149.475 45.2056C149.475 42.4748 148.259 40.6749 146.054 40.6749C143.773 40.6749 142.405 42.4748 142.405 45.2056C142.405 47.9364 143.85 49.7362 146.054 49.7362C148.259 49.7362 149.475 47.9984 149.475 45.2056Z" fill="#64726F"/>
<path d="M157.838 45.3293C157.838 39.9918 162.172 36.3301 168.406 36.3301C171.524 36.3301 173.881 37.1369 175.705 38.5644C178.138 40.4884 179.202 43.4674 179.126 46.943H165.138C165.442 49.0532 166.658 50.1703 168.863 50.1703C170.156 50.1703 171.296 49.6738 171.752 48.5567H178.823C177.606 52.4667 173.881 54.3906 168.635 54.3906C162.172 54.3286 157.838 50.7289 157.838 45.3293ZM165.138 43.5295H171.828C171.676 41.4814 170.308 40.4263 168.558 40.4263C166.506 40.3643 165.366 41.5435 165.138 43.5295Z" fill="#64726F"/>
<path d="M187.413 39.744H187.565C189.086 37.3855 191.063 36.4546 193.571 36.4546C194.18 36.4546 194.56 36.5166 194.788 36.6408V41.8541H194.636C190.302 41.2334 187.793 42.9092 187.793 46.7571V53.8944H180.419V36.827H187.413V39.744Z" fill="#64726F"/>
<path d="M195.549 53.8946H202.619C202.923 54.6394 203.836 55.3221 205.584 55.3221C207.941 55.3221 208.777 54.1429 208.777 52.343V51.1018H208.626C207.485 52.2189 205.889 53.0257 203.608 53.0257C199.122 53.0257 195.169 50.2949 195.169 44.9575C195.169 40.0544 198.361 36.2686 203.227 36.2686C206.041 36.2686 207.713 37.1995 208.853 38.627H209.005V36.7651H216V51.5362C216 54.267 214.86 56.3772 213.111 57.6184C211.286 58.9218 208.701 59.4803 205.736 59.4803C200.111 59.5424 196.233 57.6805 195.549 53.8946ZM209.081 44.7092C209.081 42.599 207.865 40.8613 205.736 40.8613C203.684 40.8613 202.391 42.3508 202.391 44.7092C202.391 47.0056 203.684 48.6192 205.736 48.6192C207.789 48.6192 209.081 46.9435 209.081 44.7092Z" fill="#64726F"/>
</g>
<defs>
<clipPath id="clip0_1_355">
<rect width="196" height="30" fill="white" transform="translate(20 30)"/>
</clipPath>
</defs>
</svg>
