<svg width="236" height="91" viewBox="0 0 236 91" fill="none" xmlns="http://www.w3.org/2000/svg">
<path d="M18 0H218V90H18V0Z" fill="#F8FBFA"/>
<g clip-path="url(#clip0_1_375)">
<path d="M192.413 33.8574C192.413 31.8235 193.011 31.1222 194.008 31.1222C195.004 31.1222 195.802 31.543 196.732 33.8574L202.38 47.3934V55.9497C202.38 57.9836 201.582 58.5447 199.39 58.8252V59.3863H209.821V58.8252C207.562 58.5447 206.831 57.9135 206.831 55.9497V47.3934L212.279 34.3483C213.342 31.8235 214.406 31.2624 216 30.9819V30.4208H208.359V30.9819C210.95 31.2624 211.881 32.0339 211.15 33.8574L206.366 45.4296L201.45 33.5769C200.786 31.9638 201.183 31.4728 204.041 31.052V30.4909H187.63V31.052C190.221 31.4728 191.018 31.9638 191.018 33.9275V49.7779L178.992 30.4909H173.079V31.052C175.006 31.3326 175.604 31.9638 175.604 33.9275V56.0198C175.604 58.0537 175.072 58.7551 174.408 58.7551C173.81 58.7551 173.478 58.4746 172.614 56.0198L163.711 30.3507H163.18L154.609 54.8977C153.679 57.633 152.217 58.5447 150.756 58.8954V59.4565H158.596V58.8954C155.871 58.6148 155.008 57.4927 155.606 55.6692L157.532 50.0584H165.638L167.498 55.3186C168.296 57.7031 167.83 58.4044 165.506 58.8252V59.3863H180.388V58.8252C177.797 58.4044 176.999 57.9135 176.999 55.9497V36.1718L191.55 59.4565H192.413V33.8574ZM87.5038 44.8685C87.5038 35.8913 91.5567 31.1923 96.2739 31.1923C99.0644 31.1923 100.858 31.8235 101.921 33.0158C102.719 33.8574 103.317 35.0497 103.981 36.9433H104.513V30.9117C101.788 30.3507 99.3302 30 96.8719 30C89.7627 30 82.3878 34.8393 82.3878 44.8685C82.3878 54.8977 89.7627 59.737 96.4068 59.737C99.3302 59.737 101.921 59.2461 104.38 58.4746L105.177 52.7937L104.712 52.6534C104.114 53.8457 103.383 54.8977 102.586 55.8095C100.858 57.633 98.5329 58.6148 96.2075 58.6148C91.6895 58.5447 87.5038 53.9859 87.5038 44.8685ZM146.437 45.7101C145.839 45.7101 145.041 45.6399 144.244 45.4998V31.4728H146.437C150.091 31.4728 151.686 33.5067 151.686 38.5564C151.686 43.6762 150.024 45.7101 146.437 45.7101ZM61.0603 30.4208V37.3641H61.5919C62.3891 32.9456 64.0502 31.543 66.8407 31.543H68.1695V55.9497C68.1695 57.9836 67.3722 58.5447 65.1797 58.8252V59.3863H75.6109V58.8252C73.3519 58.5447 72.621 57.9135 72.621 55.9497V31.4728H73.9498C76.7403 31.4728 78.4013 32.8755 79.1987 37.294H79.7302V30.3507H61.0603V30.4208ZM52.7552 59.737C57.2732 59.737 62.057 57.0018 62.057 51.391C62.057 48.0947 60.3959 45.3595 57.4726 43.6762L52.2902 40.6604C49.5661 39.0473 48.7688 37.5745 48.7688 35.4705C48.7688 33.0859 50.4298 31.1923 53.5526 31.1923C55.0807 31.1923 56.2102 31.6131 57.1403 32.5248C57.9377 33.3665 58.7349 34.7691 59.4658 37.294H59.9309V30.9117C58.0705 30.3507 56.1438 30 53.8848 30C49.4332 30 46.1112 32.9456 46.1112 37.9252C46.1112 41.0813 47.7722 43.9567 50.4962 45.6399L55.28 48.4453C58.0041 50.0584 58.8678 51.6014 58.8678 53.9158C58.8678 56.6511 56.2102 58.6148 53.2868 58.6148C51.36 58.6148 49.7654 57.9135 48.6359 56.7212C47.9051 55.9497 47.1078 54.7574 46.5762 53.2145H49.699V52.6534C48.8352 52.443 48.3038 52.3027 47.5729 50.4792L41.4603 35.1198H40.9288L34.9491 50.1286C34.1519 52.1624 33.6203 52.5131 32.6902 52.6534V53.2145H38.0054V52.6534C36.0787 52.443 35.5471 51.4612 36.0122 50.1987L36.9423 47.8141H42.3241L43.52 50.7598C44.0516 52.0923 43.2542 52.443 41.3274 52.5833V53.1444H45.5797V58.685C47.7058 59.3162 50.4298 59.737 52.7552 59.737ZM120.259 59.4565L128.166 36.242L128.763 56.0198C128.83 57.9836 128.099 58.5447 125.84 58.8252V59.3863H147.632V58.8252C145.041 58.4044 144.244 57.9135 144.244 55.9497V46.6219C145.108 46.7621 145.971 46.8323 146.636 46.8323C151.884 46.8323 156.402 44.7984 156.402 38.6265C156.402 32.4547 151.884 30.4208 146.636 30.4208H137.268V30.9819C139.194 31.2624 139.792 31.8936 139.792 33.8574V55.9497C139.792 57.9836 138.996 58.8252 136.802 58.8252H136.737C134.411 58.8252 133.414 57.9136 133.348 56.0198L132.55 33.9275C132.484 31.8936 133.149 31.2624 135.208 30.9819V30.4208H128.763L121.721 51.2508L114.678 30.4208H107.768V30.9819C109.828 31.2624 110.492 31.9638 110.426 33.9275L109.695 55.1081C109.628 57.2122 108.565 58.4746 106.639 58.8252V59.3863H113.947V58.8252C112.087 58.5447 111.024 57.2823 111.09 55.1081L111.688 35.8212L119.728 59.3863L120.259 59.4565ZM99.0644 53.3548C102.586 53.3548 107.104 50.0584 107.104 44.8685C107.104 39.7487 102.652 36.3822 99.0644 36.3822C95.543 36.3822 91.0251 39.6785 91.0251 44.8685C91.0251 49.9883 95.4767 53.3548 99.0644 53.3548ZM99.0644 37.5745C101.323 37.5745 102.852 39.5383 102.852 44.8685C102.852 50.2688 101.257 52.1624 99.0644 52.1624C96.8054 52.1624 95.2773 50.1987 95.2773 44.8685C95.2773 39.4681 96.8054 37.5745 99.0644 37.5745ZM165.306 48.8662H157.931L161.586 38.2057L165.306 48.8662ZM41.9919 46.692H37.4739L39.7329 40.8709L41.9919 46.692ZM33.3546 48.1648H33.8861V39.4681H33.3546C32.4909 42.5541 31.6271 43.2554 30.0326 43.2554H26.9763V31.4728H31.8264C34.617 31.4728 36.278 32.8755 37.0752 37.294H37.6068V30.3507H20V30.9117C21.9268 31.1923 22.5247 31.8235 22.5247 33.7873V55.8797C22.5247 57.9136 21.9268 58.4746 20 58.7551V59.3162H30.3648V58.7551C27.7736 58.3343 26.9763 57.8434 26.9763 55.8797V44.3074H30.0326C31.5607 44.3776 32.4909 45.0789 33.3546 48.1648Z" fill="#64726F"/>
</g>
<defs>
<clipPath id="clip0_1_375">
<rect width="196" height="30" fill="white" transform="translate(20 30)"/>
</clipPath>
</defs>
</svg>
