<svg width="236" height="91" viewBox="0 0 236 91" fill="none" xmlns="http://www.w3.org/2000/svg">
<path d="M18 0H218V90H18V0Z" fill="#F8FBFA"/>
<g clip-path="url(#clip0_1_369)">
<path fill-rule="evenodd" clip-rule="evenodd" d="M129.876 30.1413C120.724 31.126 116.57 31.5896 116.419 31.643C116.244 31.7052 116.245 32.2883 116.421 32.4468C116.494 32.5131 117.021 32.6298 117.592 32.7063C119.555 32.9693 120.11 33.2657 120.697 34.365C121.187 35.2824 121.344 39.8295 121.224 49.6438L121.115 58.5084L121.945 58.615C126.495 59.1988 129.097 59.3731 133.253 59.372C137.609 59.3708 138.929 59.2629 141.585 58.6907C145.567 57.8327 148.9 56.1577 150.692 54.1135C151.398 53.3085 152.328 51.7134 152.668 50.7239C153.042 49.6357 152.99 46.2667 152.584 45.2543C150.943 41.1652 146.235 38.5528 140.179 38.3717C137.311 38.2858 134.61 38.5582 132.487 39.1472C132.11 39.2518 131.739 39.3373 131.662 39.3373C131.584 39.3373 131.521 37.234 131.521 34.6633C131.521 30.9847 131.475 29.9916 131.304 30.0001C131.185 30.006 130.543 30.0696 129.876 30.1413ZM20.1905 30.5775C20.0078 30.6441 19.9732 30.8059 20.05 31.2331C20.106 31.5451 20.1808 31.8169 20.2163 31.8372C20.2516 31.8575 20.8213 31.9185 21.4823 31.9728C23.9805 32.1776 25.0548 32.5637 25.8348 33.5368C26.8786 34.8388 27.1005 36.7652 27.0982 44.5068C27.0958 53.577 26.783 55.4865 25.1152 56.6197C24.4655 57.0611 23.8963 57.2138 22.0301 57.4478C21.1585 57.5571 20.3451 57.6942 20.2227 57.7526C20.1003 57.8109 20 58.053 20 58.2905C20 58.6157 20.0828 58.7478 20.3349 58.8253C20.8468 58.9826 45.3196 58.9667 45.5943 58.8089C45.8776 58.6463 45.8578 57.8852 45.5669 57.7465C45.4375 57.6848 44.4931 57.5476 43.4684 57.4416C41.3075 57.2177 40.5088 56.9691 39.8375 56.3114C38.7539 55.2495 38.385 53.5117 38.2345 48.7598L38.1346 45.6024L38.5483 45.6051C40.1558 45.6157 44.155 45.8065 44.7809 45.9026C46.4417 46.1576 47.6442 47.0692 48.4571 48.6892L48.8791 49.5306L49.9521 49.5806C50.542 49.6082 51.0577 49.6119 51.0977 49.589C51.1377 49.566 51.1704 47.3842 51.1704 44.7405V39.9339H50.1525C49.5472 39.9339 49.064 39.9843 48.9598 40.0582C48.8636 40.1267 48.6155 40.54 48.4084 40.9767C47.7993 42.2618 46.7558 43.1263 45.2878 43.5623C44.6645 43.7473 42.1536 43.9077 39.8437 43.9102L38.1277 43.9118L38.2585 39.0638C38.3306 36.3974 38.4405 33.8802 38.5026 33.4699L38.6158 32.7241L43.2046 32.7533C48.2817 32.7857 49.1993 32.8518 50.7756 33.2991C53.2475 34.0004 55.217 35.424 56.7217 37.597C57.7568 39.0916 57.681 39.0563 59.2513 38.7721L60.1761 38.6047L60.0663 34.9683C60.0061 32.9682 59.9062 31.1528 59.8447 30.9341L59.7328 30.5363L40.0828 30.5127C28.8377 30.4992 20.3292 30.5269 20.1905 30.5775ZM69.3396 38.1919C62.2615 38.8767 57.1075 41.7 55.4822 45.7829C54.9906 47.018 54.855 49.6868 55.2153 51.0354C55.5733 52.376 56.5177 54.0121 57.5314 55.0482C59.0071 56.5565 61.853 57.994 64.7648 58.702C67.2804 59.3136 71.3419 59.5732 74.6817 59.3361C82.1237 58.8074 87.4839 55.8599 89.1971 51.3542C89.5996 50.2957 89.6205 47.122 89.2321 46.0499C87.579 41.486 83.1442 38.8701 75.9191 38.1971C73.9877 38.0172 71.1674 38.0149 69.3396 38.1919ZM97.1732 38.9133C90.3602 39.6985 89.7384 39.7869 89.5749 39.9931C89.2976 40.3427 89.5418 40.7168 90.0927 40.7866C93.1942 41.18 93.4851 41.3138 94.079 42.619C94.3985 43.321 94.5738 51.515 94.3227 54.0056C94.0475 56.7384 93.5402 57.2485 90.7805 57.5682L89.7005 57.6933L89.6489 58.2557L89.5972 58.818L90.1685 58.8766C90.4826 58.9089 95.2204 58.9226 100.697 58.907L110.654 58.8786V58.2854V57.6923L109.096 57.5804C107.139 57.44 106.786 57.3764 106.195 57.059C104.927 56.3769 104.629 54.8149 104.615 48.7749C104.604 43.8112 104.523 44.0786 106.171 43.6453C106.689 43.509 107.646 43.3522 108.297 43.2967C110.193 43.135 111.526 43.3094 115.01 44.1744C115.133 44.2052 115.551 43.7216 116.111 42.8994C117.677 40.5989 118.706 38.9476 118.706 38.7355C118.706 38.1346 114.54 37.8156 112.146 38.2331C109.704 38.659 107.283 39.8521 105.638 41.4406C105.193 41.87 104.786 42.2213 104.732 42.2213C104.679 42.2213 104.683 41.7401 104.742 41.1522C104.925 39.3298 104.931 38.1088 104.758 38.0829C104.667 38.0692 101.254 38.443 97.1732 38.9133ZM170.412 38.1546C162.655 38.8042 157.109 42.1853 155.923 46.9881C155.597 48.304 155.808 50.7893 156.346 51.9875C157.129 53.7306 158.56 55.2367 160.61 56.4762C162.774 57.7842 165.339 58.6379 168.635 59.1461C170.647 59.4563 175.467 59.4602 177.416 59.153C179.447 58.833 181.375 58.3735 182.606 57.9166C183.693 57.5126 186.762 55.8642 186.762 55.6848C186.76 55.4914 186.058 54.9503 185.808 54.9503C185.661 54.9503 184.939 55.1497 184.204 55.3934C182.277 56.0313 180.763 56.2432 178.132 56.2432C174.687 56.2432 172.583 55.7991 170.449 54.621C168.661 53.6346 167.727 52.6905 166.986 51.1217C166.61 50.3246 166.209 48.3097 166.378 48.0583C166.482 47.9024 167.267 47.8897 176.805 47.8897C185.958 47.8897 187.131 47.8724 187.222 47.7356C187.278 47.6509 187.237 47.0534 187.131 46.4079C186.576 43.053 184.48 40.664 180.885 39.2918C178.175 38.2571 174.261 37.8322 170.412 38.1546ZM200.89 38.1475C194.51 38.7256 190.278 41.0615 189.932 44.1959C189.682 46.4454 191.235 48.2719 194.381 49.4278C195.536 49.8521 195.768 49.9144 200.135 50.9699C204.862 52.1122 206.193 52.844 206.203 54.3039C206.211 55.4516 205.463 56.2941 203.944 56.8471C202.798 57.2648 201.973 57.3668 200.175 57.3137C198.861 57.275 198.416 57.2146 197.404 56.9386C195.222 56.3433 193.555 55.1568 191.866 52.9972C191.033 51.933 190.874 51.8615 189.801 52.0646L189.212 52.1766L189.293 54.7817C189.388 57.8214 189.447 58.1989 189.845 58.3214C190.309 58.4638 193.256 58.9063 195.335 59.1457C196.99 59.336 197.749 59.363 201.135 59.3512C204.433 59.34 205.238 59.3071 206.372 59.1374C209.194 58.7152 211.118 58.1319 212.756 57.2014C214.713 56.0907 215.778 54.7184 215.964 53.0672C216.175 51.1929 215.476 49.8997 213.648 48.7798C212.366 47.9937 210.662 47.3919 207.469 46.5965C203.549 45.6197 202.048 45.1305 200.759 44.4091C199.422 43.66 199.131 43.2365 199.288 42.2623C199.405 41.5327 199.627 41.2151 200.42 40.6412C201.772 39.6637 204.289 39.4536 206.744 40.1132C208.815 40.6699 210.264 41.7287 211.712 43.7457C212.062 44.2326 212.446 44.6657 212.567 44.7082C212.686 44.7507 213.112 44.7216 213.512 44.6433L214.239 44.5009L214.177 42.6898C214.143 41.6936 214.071 40.4688 214.017 39.9678L213.919 39.0568L212.443 38.7867C211.629 38.6382 210.136 38.4318 209.124 38.3282C206.999 38.1108 202.407 38.01 200.89 38.1475ZM73.5967 39.8209C74.5656 40.0737 75.9974 41.012 76.7031 41.8566C77.9392 43.3358 78.4998 45.1182 78.6515 48.0506C78.8292 51.487 78.2347 54.3127 77.0069 55.8677C75.3417 57.9765 71.9844 58.5403 69.5197 57.1249C68.0927 56.3054 67.082 54.8944 66.2878 52.6134C65.8307 51.2998 65.8372 45.6203 66.2977 44.1605C67.0447 41.792 68.3707 40.2925 70.1324 39.8242C71.0425 39.5822 72.6758 39.5806 73.5967 39.8209ZM174.047 40.0399C175.502 40.8481 176.398 42.7099 176.579 45.304L176.631 46.0499L174.38 46.1132C173.142 46.148 170.823 46.1815 169.227 46.1877L166.325 46.1991L166.43 45.6273C166.868 43.2559 168.191 41.163 169.822 40.2632C170.752 39.7504 171.314 39.621 172.434 39.6619C173.293 39.6931 173.517 39.7458 174.047 40.0399ZM137.079 41.041C139.126 41.6674 140.585 42.9593 141.501 44.956C141.9 45.8254 141.968 46.2021 142.041 47.9504C142.131 50.1415 141.975 51.1358 141.298 52.6897C140.176 55.2619 138.409 56.8883 136.049 57.5197C135.213 57.7433 134.848 57.7801 133.539 57.7732C132.488 57.7675 131.963 57.7247 131.869 57.6367C131.793 57.5662 131.684 56.8992 131.628 56.1547C131.449 53.8079 131.343 44.1284 131.478 42.5225L131.607 40.984L132.3 40.8644C132.681 40.7987 133.683 40.7414 134.527 40.7372C135.927 40.7303 136.15 40.7567 137.079 41.041Z" fill="#64726F"/>
</g>
<defs>
<clipPath id="clip0_1_369">
<rect width="196" height="30" fill="white" transform="translate(20 30)"/>
</clipPath>
</defs>
</svg>
