<svg width="236" height="91" viewBox="0 0 236 91" fill="none" xmlns="http://www.w3.org/2000/svg">
<path d="M18 0H218V90H18V0Z" fill="#F8FBFA"/>
<g clip-path="url(#clip0_1_343)">
<path d="M37.589 30.781H40.5205V41.8619H48.0252V30.781H50.2531V58.0932H48.0252V43.4227H40.5205V58.0932H37.589V30.781ZM70.1287 58.1712H71.7703V36.2435L84.7274 58.5613V30.8591H83.1445V48.6509L72.6497 30.8591H70.1287V58.1712ZM87.4831 58.1712H99.5609L101.085 54.0353C101.085 54.0353 98.9746 56.2984 94.8705 56.2984C94.0497 56.2984 90.6491 56.2984 90.6491 56.2984V43.6568C90.6491 43.6568 91.9977 43.6568 93.6979 43.6568C95.3982 43.6568 96.1017 45.0613 96.1017 45.0613V41.0035C95.5154 41.7839 95.2809 42.018 93.6979 42.018C92.1735 42.018 90.6491 42.018 90.6491 42.018V32.4197C90.6491 32.4197 90.825 32.4197 92.4666 32.4197C94.8118 32.4197 96.0431 34.0585 96.0431 34.0585L94.9877 30.8591H87.4831V58.1712ZM191.551 58.1712H199.642L201.46 54.8937C201.46 54.8937 200.052 56.3764 196.476 56.3764C195.655 56.3764 194.483 56.3764 194.483 56.3764V43.5007C194.483 43.5007 196.066 43.5007 197.825 43.5007C199.525 43.5007 199.877 44.437 199.877 44.437V41.2376C199.408 41.8619 199.056 42.018 197.825 42.018C196.3 42.018 194.483 42.018 194.483 42.018V32.4197C194.483 32.4197 195.539 32.4197 197.239 32.4197C199.818 32.4197 200.99 34.0585 200.99 34.0585L199.936 30.8591H191.61L191.551 58.1712ZM53.0087 58.0932H61.0996L62.9171 54.8156C62.9171 54.8156 61.5101 56.2984 57.9336 56.2984C57.1128 56.2984 55.9401 56.2984 55.9401 56.2984V43.5007C55.9401 43.5007 57.5232 43.5007 59.2821 43.5007C60.9823 43.5007 61.3341 44.437 61.3341 44.437V41.1596C60.8651 41.7839 60.5133 41.94 59.2821 41.94C57.7577 41.94 55.9401 41.94 55.9401 41.94V32.3417C55.9401 32.3417 56.9955 32.3417 58.6958 32.3417C61.2755 32.3417 62.4481 33.9804 62.4481 33.9804L61.3927 30.781H53.0673L53.0087 58.0932ZM29.2635 32.5758C29.2635 32.5758 30.0844 32.5758 31.8433 32.5758C34.5989 32.5758 35.8301 34.2145 35.8301 34.2145L34.7161 30.8591H29.3221H21.1139L20 34.2145C20 34.2145 21.2312 32.5758 23.9868 32.5758C25.8044 32.5758 25.863 32.5758 26.4493 32.5758V58.0932H29.3808L29.2635 32.5758ZM106.186 58.4053L109.293 49.4313L112.459 58.3272L121.605 30.781H119.788L113.163 50.8359L110.935 44.359L115.274 30.781H113.749L110.114 41.4718L106.303 30.781H103.255L108.473 46.6221L107.066 50.8359L100.264 30.781H97.0985L106.186 58.4053ZM138.55 44.7492C138.55 52.0844 142.888 59.4197 150.217 59.4197C157.546 59.4197 161.416 53.4111 161.416 43.9688C161.416 36.6336 157.135 30.0007 150.041 30.0007C143.181 29.9227 138.55 36.4775 138.55 44.7492ZM149.924 31.4833C155.494 31.4833 158.367 38.6625 158.367 44.281C158.367 51.3042 156.08 57.4689 150.452 57.4689C144.295 57.4689 141.598 50.4458 141.598 44.0469C141.598 35.6192 146.054 31.4833 149.924 31.4833ZM163.819 58.1712H166.81V32.3417C166.81 32.3417 167.982 32.3417 168.158 32.3417C168.92 32.3417 170.797 32.966 170.797 37.1018C170.797 41.4718 168.1 42.2521 168.1 42.2521V42.7983C169.389 42.7983 170.972 42.9544 170.972 50.7579C170.972 56.1423 172.379 58.4833 174.256 58.4833C176.132 58.4833 176.953 56.7665 177.07 56.5324L176.659 56.1423C176.483 56.5324 175.956 57.1567 175.253 57.1567C174.373 57.1567 173.376 55.2059 173.376 50.0555C173.376 44.8273 172.32 42.9544 169.389 42.3301C170.972 41.6278 173.376 40.5353 173.376 36.3215C173.376 32.7319 171.265 30.781 168.744 30.781C166.868 30.781 163.937 30.781 163.937 30.781L163.819 58.1712ZM202.749 58.1712H205.739V32.3417C205.739 32.3417 206.912 32.3417 207.088 32.3417C207.85 32.3417 209.727 32.966 209.727 37.1018C209.727 41.4718 207.03 42.2521 207.03 42.2521V42.7983C208.32 42.7983 209.902 42.9544 209.902 50.7579C209.902 56.1423 211.31 58.4833 213.185 58.4833C215.062 58.4833 215.882 56.7665 216 56.5324L215.589 56.1423C215.414 56.5324 214.886 57.1567 214.182 57.1567C213.303 57.1567 212.306 55.2059 212.306 50.0555C212.306 44.8273 211.251 42.9544 208.32 42.3301C209.902 41.6278 212.306 40.5353 212.306 36.3215C212.306 32.7319 210.195 30.781 207.675 30.781C205.798 30.781 202.867 30.781 202.867 30.781L202.749 58.1712ZM186.744 49.1191C186.744 42.8764 185.747 39.9891 182.815 39.2868L188.502 30.8591H186.568L181.174 38.8966V30.8591H178.243L178.184 58.1712H181.174V40.1452H181.819C182.347 40.1452 183.519 41.0816 183.812 42.4082C184.223 44.0469 184.34 46.544 184.34 49.8214V50.9139C184.34 56.2984 185.747 58.6394 187.623 58.6394C189.499 58.6394 190.32 56.9227 190.438 56.6885L190.027 56.2984C189.851 56.6885 189.323 57.3128 188.62 57.3128C187.741 57.3128 186.744 55.3619 186.744 50.2117V49.1191ZM134.329 58.1712V44.0469L140.016 30.8591H138.139L132.687 43.4227L127.235 30.8591H125.358L131.045 44.0469V58.1712H134.329Z" fill="#64726F"/>
</g>
<defs>
<clipPath id="clip0_1_343">
<rect width="196" height="30" fill="white" transform="translate(20 30)"/>
</clipPath>
</defs>
</svg>
